<svg xmlns="http://www.w3.org/2000/svg" viewBox="0 0 512 512" fill="none">
  <g stroke="#ffffff" stroke-width="18" stroke-linecap="round" stroke-linejoin="round">
    <!-- Left glove (smaller, behind) -->
    <path d="M166 295
             c-22-28-27-65-10-98
             c13-26 41-45 73-45
             c40 0 73 31 76 71
             c2 25-6 48-21 66" />
    <path d="M150 300
             c-20-10-34-30-34-54
             c0-26 16-49 40-58" />
    <path d="M214 323
             c-18 20-42 31-68 31
             c-12 0-23-2-33-7" />

    <!-- Left cuff -->
    <path d="M118 360
             h112
             c10 0 18 8 18 18
             v38
             c0 10-8 18-18 18
             H136
             c-10 0-18-8-18-18
             v-56z" />
    <path d="M150 387 h66" />

    <!-- Right glove (bigger, front) -->
    <path d="M310 146
             c60 0 110 49 110 110
             c0 35-16 67-42 88" />
    <path d="M262 168
             c18-14 40-22 64-22" />
    <path d="M380 344
             c-22 24-53 40-88 40
             h-34
             c-33 0-60-27-60-60
             v-36
             c0-66 52-120 116-120" />

    <!-- Thumb / inner crease of right glove -->
    <path d="M236 246
             c-24 12-40 36-40 64" />
    <path d="M274 244
             c-16 6-28 20-32 38" />

    <!-- Right cuff -->
    <path d="M226 384
             h168
             c10 0 18 8 18 18
             v44
             c0 10-8 18-18 18
             H250
             c-13 0-24-11-24-24
             v-56z" />
    <path d="M270 414 h96" />
  </g>
</svg>
